HIERARCHY
ROOT Hips
{
    OFFSET 0.000000 0.000000 0.000000
    CHANNELS 6 Xposition Yposition Zposition Zrotation Xrotation Yrotation
    JOINT Spine
    {
        OFFSET -0.000000 7.246840 0.000000
        CHANNELS 3 Zrotation Xrotation Yrotation
        JOINT Spine1
        {
            OFFSET -0.000000 20.289354 0.000000
            CHANNELS 3 Zrotation Xrotation Yrotation
            JOINT Neck
            {
                OFFSET -0.000000 20.206032 1.836912
                CHANNELS 3 Zrotation Xrotation Yrotation
                JOINT Head
                {
                    OFFSET -0.000000 12.372654 -1.767522
                    CHANNELS 3 Zrotation Xrotation Yrotation
                    End Site
                    {
                        OFFSET -0.000000 22.094025 0.000000
                    }
                }
            }
            JOINT LeftShoulder
            {
                OFFSET 3.465871 17.201674 -0.568930
                CHANNELS 3 Zrotation Xrotation Yrotation
                JOINT LeftArm
                {
                    OFFSET 14.070313 0.000000 0.000000
                    CHANNELS 3 Zrotation Xrotation Yrotation
                    JOINT LeftForeArm
                    {
                        OFFSET 26.549477 0.000000 0.000000
                        CHANNELS 3 Zrotation Xrotation Yrotation
                        JOINT LeftHand
                        {
                            OFFSET 18.880413 0.000000 0.000000
                            CHANNELS 3 Zrotation Xrotation Yrotation
                            End Site
                            {
                                OFFSET 13.256415 0.000000 0.000000
                            }
                        }
                    }
                }
            }
            JOINT RightShoulder
            {
                OFFSET -3.526370 17.201674 -0.568930
                CHANNELS 3 Zrotation Xrotation Yrotation
                JOINT RightArm
                {
                    OFFSET -14.070313 0.000000 0.000000
                    CHANNELS 3 Zrotation Xrotation Yrotation
                    JOINT RightForeArm
                    {
                        OFFSET -26.549477 0.000000 0.000000
                        CHANNELS 3 Zrotation Xrotation Yrotation
                        JOINT RightHand
                        {
                            OFFSET -18.880413 0.000000 0.000000
                            CHANNELS 3 Zrotation Xrotation Yrotation
                            End Site
                            {
                                OFFSET -13.256415 0.000000 0.000000
                            }
                        }
                    }
                }
            }
        }
    }
    JOINT LeftUpLeg
    {
        OFFSET 8.837609 0.000000 0.000000
        CHANNELS 3 Zrotation Xrotation Yrotation
        JOINT LeftLeg
        {
            OFFSET -0.000000 -41.345005 0.000000
            CHANNELS 3 Zrotation Xrotation Yrotation
            JOINT LeftFoot
            {
                OFFSET -0.000000 -35.500874 0.000000
                CHANNELS 3 Zrotation Xrotation Yrotation
                JOINT LeftToeBase
                {
                    OFFSET -0.000000 -5.744446 13.256415
                    CHANNELS 3 Zrotation Xrotation Yrotation
                    End Site
                    {
                        OFFSET -0.000000 0.000000 3.535044
                    }
                }
            }
        }
    }
    JOINT RightUpLeg
    {
        OFFSET -8.837609 0.000000 0.000000
        CHANNELS 3 Zrotation Xrotation Yrotation
        JOINT RightLeg
        {
            OFFSET -0.000000 -41.345005 0.000000
            CHANNELS 3 Zrotation Xrotation Yrotation
            JOINT RightFoot
            {
                OFFSET -0.000000 -35.500874 0.000000
                CHANNELS 3 Zrotation Xrotation Yrotation
                JOINT RightToeBase
                {
                    OFFSET -0.000000 -5.744446 13.256415
                    CHANNELS 3 Zrotation Xrotation Yrotation
                    End Site
                    {
                        OFFSET -0.000000 0.000000 3.535044
                    }
                }
            }
        }
    }
}
MOTION
Frames:    4
Frame Time:    0.010000
0.325347    82.254349    -12.618348    3.288256    3.606929    -6.139187    -4.605286    -14.027058    1.767344    -1.115490    9.746841    2.429333    6.917600    25.904974    -2.112522    0.368738    -18.997643    -1.436246    13.391704    7.334265    10.424474    -51.318180    81.104767    -3.922881    13.859407    -0.216661    -86.707550    22.719437    5.516283    -35.889854    -10.725782    1.772705    8.714677    30.815271    -8.473825    11.475189    -12.490613    -39.101143    103.097862    61.480637    -18.676340    12.769695    -2.688235    5.351145    2.136666    -1.628805    -9.201098    -3.788906    3.580559    1.339507    -0.708636    -0.807868    -2.238110    1.146513    -6.699722    3.548398    1.729439    8.806792    -10.995680    2.433217    2.343145    0.299626    -2.412434    -1.417449    0.091930    2.539141    
0.316679    82.254517    -12.631071    3.297750    3.596290    -6.339199    -4.801534    -14.062009    1.681421    -0.805862    9.716553    2.342447    6.515227    25.776886    -2.434726    0.906462    -18.479183    -1.658631    13.131363    7.334912    10.380991    -52.444244    80.673378    -2.573305    13.993364    -0.200733    -86.642853    22.258749    5.838293    -35.720058    -10.971515    1.938588    8.488004    31.358019    -7.675348    11.075943    -12.622879    -39.128613    102.940338    62.474323    -18.326883    12.973916    -2.700383    5.361600    2.174819    -1.622787    -9.183779    -3.791501    3.592963    1.334723    -0.528776    -0.784419    -2.181903    1.112846    -6.713371    3.514364    1.865414    8.821776    -11.009703    2.440479    2.332446    0.334715    -2.381377    -1.431414    0.100389    2.563919    
0.318561    82.250557    -12.637854    3.327542    3.554399    -6.575226    -4.847591    -14.087527    1.628357    -1.041217    9.792485    2.316906    6.810236    25.429991    -2.811789    1.123247    -17.850101    -1.988303    13.385943    7.335868    10.572792    -52.521412    80.320999    -2.601596    14.051517    -0.065335    -86.420235    21.883492    6.068043    -35.880451    -10.663394    2.134680    8.231174    31.652462    -6.987432    10.714348    -12.613453    -39.069332    102.740921    63.380695    -17.985760    13.308352    -2.759513    5.419580    2.226567    -1.604992    -9.208918    -3.614454    3.636897    1.333662    -0.530106    -0.811977    -2.134838    1.151602    -6.765332    3.514544    1.972291    8.857330    -11.040354    2.458631    2.334523    0.380299    -2.296860    -1.432859    0.124495    2.565840    
0.300557    82.249527    -12.648598    3.337185    3.528537    -6.776974    -4.929780    -14.111238    1.554096    -1.202252    9.871269    2.268434    7.198727    25.168911    -3.318217    1.190321    -17.433308    -2.483626    13.596024    7.286407    10.772417    -52.607151    80.134224    -2.527444    14.054244    -0.011796    -86.279907    21.687559    6.208229    -35.636673    -10.442906    2.287367    7.918466    31.957472    -6.089666    10.372608    -12.526011    -39.052208    102.567719    63.853779    -17.943933    13.477857    -2.758290    5.452952    2.267759    -1.600769    -9.211407    -3.634478    3.690417    1.407215    -0.398647    -0.810462    -2.174219    1.149737    -6.759924    3.516366    1.979245    8.859549    -11.087500    2.530967    2.351787    0.445328    -2.202101    -1.449152    0.140986    2.594549    
